<mxfile host="Electron" modified="2024-01-28T03:31:13.019Z" agent="Mozilla/5.0 (Windows NT 10.0; Win64; x64) AppleWebKit/537.36 (KHTML, like Gecko) draw.io/22.1.21 Chrome/120.0.6099.109 Electron/28.1.0 Safari/537.36" etag="616BlbY4wLpfUYkG9uEn" version="22.1.21" type="device">
  <diagram name="第 1 页" id="DJCnTt6eoCtlZ679giSl">
    <mxGraphModel dx="1434" dy="844" grid="1" gridSize="10" guides="1" tooltips="1" connect="1" arrows="1" fold="1" page="1" pageScale="1" pageWidth="827" pageHeight="1169" math="0" shadow="0">
      <root>
        <mxCell id="0" />
        <mxCell id="1" parent="0" />
        <mxCell id="7I1H9S0PpsdzLeiU30OG-1" value="" style="rounded=0;whiteSpace=wrap;html=1;fillColor=#e1d5e7;strokeColor=#9673a6;" vertex="1" parent="1">
          <mxGeometry x="90" y="200" width="400" height="580" as="geometry" />
        </mxCell>
        <mxCell id="7I1H9S0PpsdzLeiU30OG-2" value="DefaultMQProducer" style="text;html=1;strokeColor=none;fillColor=none;align=center;verticalAlign=middle;whiteSpace=wrap;rounded=0;fontSize=19;" vertex="1" parent="1">
          <mxGeometry x="230" y="220" width="150" height="40" as="geometry" />
        </mxCell>
        <mxCell id="7I1H9S0PpsdzLeiU30OG-3" value="" style="rounded=0;whiteSpace=wrap;html=1;fillColor=#d5e8d4;strokeColor=#82b366;" vertex="1" parent="1">
          <mxGeometry x="130" y="280" width="330" height="470" as="geometry" />
        </mxCell>
        <mxCell id="7I1H9S0PpsdzLeiU30OG-4" value="DefaultMQProducerImpl" style="text;html=1;strokeColor=none;fillColor=none;align=center;verticalAlign=middle;whiteSpace=wrap;rounded=0;fontSize=18;" vertex="1" parent="1">
          <mxGeometry x="280" y="310" width="60" height="30" as="geometry" />
        </mxCell>
        <mxCell id="7I1H9S0PpsdzLeiU30OG-5" value="" style="rounded=0;whiteSpace=wrap;html=1;fillColor=#f8cecc;strokeColor=#b85450;" vertex="1" parent="1">
          <mxGeometry x="150" y="380" width="280" height="350" as="geometry" />
        </mxCell>
        <mxCell id="7I1H9S0PpsdzLeiU30OG-6" value="MQClientInstance" style="text;html=1;strokeColor=none;fillColor=none;align=center;verticalAlign=middle;whiteSpace=wrap;rounded=0;fontSize=17;" vertex="1" parent="1">
          <mxGeometry x="250" y="400" width="60" height="30" as="geometry" />
        </mxCell>
        <mxCell id="7I1H9S0PpsdzLeiU30OG-7" value="" style="rounded=0;whiteSpace=wrap;html=1;fillColor=#fff2cc;strokeColor=#d6b656;" vertex="1" parent="1">
          <mxGeometry x="169" y="440" width="241" height="270" as="geometry" />
        </mxCell>
        <mxCell id="7I1H9S0PpsdzLeiU30OG-8" value="MQClientAPIImpl" style="text;html=1;strokeColor=none;fillColor=none;align=center;verticalAlign=middle;whiteSpace=wrap;rounded=0;" vertex="1" parent="1">
          <mxGeometry x="210" y="470" width="60" height="30" as="geometry" />
        </mxCell>
        <mxCell id="7I1H9S0PpsdzLeiU30OG-9" value="RemotingClient" style="rounded=0;whiteSpace=wrap;html=1;fillColor=#dae8fc;strokeColor=#6c8ebf;" vertex="1" parent="1">
          <mxGeometry x="220" y="510" width="120" height="60" as="geometry" />
        </mxCell>
        <mxCell id="7I1H9S0PpsdzLeiU30OG-10" value="ClientRemotingProcessor&lt;br&gt;用于处理服务端发来的请求" style="rounded=0;whiteSpace=wrap;html=1;fillColor=#dae8fc;strokeColor=#6c8ebf;" vertex="1" parent="1">
          <mxGeometry x="200" y="610" width="160" height="60" as="geometry" />
        </mxCell>
      </root>
    </mxGraphModel>
  </diagram>
</mxfile>
